<svg xmlns="http://www.w3.org/2000/svg" viewBox="0 0 1698 664" width="1698" height="664">
	<path id="alpha pride logo" fill-rule="evenodd" d="M1416.41 317.98C1416.44 314.59 1416.49 313.62 1416.5 313.4C1416.47 313.63 1416.32 314.19 1415.84 306.69C1415.32 298.37 1414.68 291.78 1414.54 282.9C1414.27 265.39 1414.72 248.1 1414.28 230.47C1509.47 227.97 1507.71 236.6 1507.46 333.8C1507.22 431.3 1510.33 440.06 1414.28 437.31L1416.41 317.98ZM982.52 475.16L986.6 462.07C961.35 439.09 930 434.2 905.15 456.74C909.5 479.14 924.91 496.24 934.58 512.51L961.54 509.81C955.72 524.02 959.78 515.17 952.31 528.22C953.85 527.96 964.59 525.94 965.92 526.12C977.37 527.65 967.12 524.79 974.78 530.16C957.4 541.49 953.74 540.8 934.98 542.14C933.73 541.26 931.85 538.15 931.22 539.54C930.64 540.8 928.31 537.79 927.57 537.62C922.36 536.39 925.67 535.79 918.2 537.3C908.5 530.37 908.35 543.58 911.45 523.15L906.74 513.76C923.56 515.65 908.76 514.97 915.05 508.45L897.77 468.52L887.7 477.95L883.79 486.24C887.59 504.77 893.72 517.26 890.76 545.87L877.3 512.7C870.31 498.17 845.64 479.23 857.87 442.04C862.74 427.22 864.32 420.7 878.88 418.13C869.92 410.8 875.66 418.55 871.88 405.75C862.04 372.35 850.24 341.12 893.46 309.66C883.21 329.53 871.17 357.08 878.62 388.38C893.92 452.72 874.53 418.86 870.73 474.51L882.65 473.55C888.73 457.27 900.42 444.44 914.66 435.04C934.51 421.94 946.17 428.23 966.6 433.9C967.32 424.89 967.02 415.05 969.34 406.66C975.55 384.23 972.71 395.08 984.62 387.96C970.82 426.05 970.63 434.49 998.07 461.99L1003.7 467.77C996.17 473.87 992.46 477.9 983.24 482.76L974.79 488.27L982.52 475.16ZM1025 132.12L1028.76 134.88C1036.16 143.85 1028.06 138.83 1036.13 149.24C1041.58 156.26 1035.81 149.52 1043.93 156L1049.98 159.64C1037.76 183.39 1024.11 217.3 1036.1 247.18C1036.32 247.73 1067.92 294.8 1041.41 334.15C1026.76 320.94 1035.66 326.99 1038.76 311.73C1048.89 261.89 993.94 231.25 1002.34 205.72C1012.41 201.21 1007.82 199.34 1022.47 210.08C1023.07 210.52 1024.73 213.66 1025.16 212.72C1025.6 211.76 1026.86 214.63 1027.77 215.53C1023.28 191.72 1027.69 188.22 1034.94 167.75L1027.41 170.6C1022.25 165.5 1022.37 176.44 1020.1 162.48C1015.47 189.64 1021.64 174.15 1006.16 176.55C1008.35 193.87 1011.33 182.39 1002.7 195.13C999.01 188.4 994.66 207.01 1000.09 182.92C1004.69 162.47 999.78 181.74 1006.16 176.55L1005.11 161.68L1021.22 161.21L1017.61 148.46C993.34 98.09 999.74 147.37 994.73 128.29L979.83 77.54L970.89 90.54L948.17 68.8C942.01 77.76 947.81 68.92 943.44 77.98C942.93 79.04 942.82 92.6 940.42 84.63C940.19 83.87 939.5 86.95 938.91 88.03L911.03 56.64C896.4 50.06 908.46 61.93 892.88 64.03C889.32 64.51 837.57 60.54 804.86 73.55C803.79 73.97 802.69 74.73 801.58 75.11C800.44 75.51 799.28 76.11 798.06 76.44C790.43 78.54 788.29 78 780.29 78.28C751.75 79.29 743.86 83.37 718.15 85.32L762.13 73L771.23 63.02C777.15 57.65 770.38 61.78 780.78 56.66L842.98 55.15C848.66 43.45 839.16 54.64 843.32 40.77L889.03 45.01C889.52 43.73 891.34 38.87 891.88 37.6C896.65 26.44 891.07 34.63 897.49 26.94C906.61 35.24 924.2 53.54 933.4 64.8L927.23 38.01C939.51 44.15 954.02 62.13 958.7 67.9C969.33 61.27 960.96 66.97 968.05 56.7C968.84 55.56 972.06 51.67 972.52 49.23C972.94 47.01 973.86 46.45 974.78 45.24L1002.09 107.32L1008.64 98.6L1013.33 106.53C1017.92 141.99 1024.98 132.11 1025 132.12ZM1029.98 480.77L1017.47 495.38C1025.43 468.24 1015.42 490.3 1029.98 480.77ZM950.27 378.92C940.17 379.94 941.07 381.94 930.59 379.58C913.48 375.74 916.91 373.46 919.72 371.55C919.7 372.85 919.93 374.35 920.56 376.08C921.59 375.3 922.12 373.81 920.56 370.96L950.27 378.92ZM915.67 359.69C929.32 362.72 920.77 363.26 919.8 370.4C914.39 366.43 912.72 366.56 915.67 359.69ZM919.8 370.4C920.05 370.57 920.3 370.76 920.56 370.96C920.3 371.15 920.01 371.35 919.72 371.55C919.72 371.15 919.75 370.76 919.8 370.4ZM871.25 619.96C850.5 628.1 827.65 630.82 803.42 630.18C808.6 625.74 817.59 616.51 822.41 611.2L792.47 617.36C800.01 594.54 806.91 584.38 808.05 558.67C802.6 567.12 796.19 579.03 791.45 586.45L769.84 611.38C774.28 568.28 766.67 552.12 755.49 516.54C754.57 517.29 753.36 517.45 752.99 519.11L737.38 538.33C736.59 539.3 735.4 540.86 734.26 541.97L735.13 477.57L718.82 496.86C717.65 472.06 721.97 452.08 712.31 430.61L688.19 471.18C683.01 477.32 693.47 477.85 680.53 475.49C680.08 454.87 680.59 426.61 673.12 411.04C667.61 422.33 659.53 433.94 650.84 444.47L642.74 359.94L632.27 377.18C628.29 383.21 627.3 384.08 624.18 387.88C625.04 370.83 622.72 341.13 631.27 328.22C653.61 324.81 654.02 390.69 655.53 415.02C672.51 402.96 669.02 392.16 685.5 386.33L688.8 414.84C691.35 426.53 678.65 423.47 700.53 424.24C701.28 415.43 698.89 415.89 703.13 406.05C708.72 393.05 701.99 401.81 713.43 393.69C719.73 412.15 724.06 443.07 726.78 468.47L739.12 448.27L744.34 496.66L759.97 465.88C770.29 482.86 770.79 491.42 774.97 513.19C778.61 532.14 780.67 552.5 781.97 573.01C794.79 560.94 805.24 539.79 816.65 525L811.59 598.92L848.06 580.57L843.27 609.77C874.26 612.34 894.04 595.17 915.77 584.32C919.47 577.94 914.12 582.48 922.01 575.63C922.05 575.6 931.93 569.64 933.51 568.73C923.26 595.66 923.57 587.65 916.18 592.66C902.42 599.43 899.93 608.7 871.25 619.96ZM759.81 180.88C750.57 215.57 722.58 204.84 722.98 328.67C723.07 356.51 725.86 374.72 717.15 391.26C703.19 379.82 707.6 398.95 707.18 333.81C706.89 286.39 710.92 191.89 759.81 180.88C764.58 170.69 745.2 174.63 775.82 170.44L759.81 180.88ZM709.09 161.08C688.01 174.44 680.19 186.21 659.49 203.98L659.79 211.69L675.02 211.05L626.7 266.95C640.95 263.18 635.15 260.29 646.15 264.99L635.87 294.23C629.8 302.66 628.67 305.15 623.45 311.13C622.3 318.08 618.6 340.73 617.66 344.9C615.05 356.59 609.83 358.65 595.06 364.64L616.71 307.11L624.12 284.6C619.88 274.44 624.79 282.91 611.69 277.46C616.44 265.22 621.15 261.73 628.98 250.91C638.82 237.31 635.11 237.81 651.41 232.7L643.75 226.61C642.74 225.96 641.11 225.04 640.13 224.46C632.77 220.12 636.21 228.87 633.92 221.91C633.53 220.72 632.05 221.53 631.2 221.11C642.66 205.29 651.86 199.31 664.39 185.59C683.72 164.43 673.47 165.28 677.22 152.83L693.83 150.32C697.74 137.15 686.07 146.52 703.36 137.18C696.97 162.11 702.6 146.8 693.83 150.32C709.96 157.27 702.18 154.24 709.09 161.08ZM999.29 501.81C999.94 500.88 1003.67 495.25 1004.63 494.24C1009.76 488.81 1008.69 490.27 1014.01 485.74C1007.24 503.93 1012.91 499.36 999.29 501.81ZM1006.39 448.67C1013.4 440.71 1000.88 444.53 1015.59 439.54C1034.85 433.02 1023.27 439.83 1026.13 441.37L1006.39 448.67ZM111.53 313.88L98.45 310.75L103.26 295.15L101.62 271.81C103.66 247.86 100.12 235.51 120.67 230.3C127.91 235.87 124.89 232.53 133.54 236C150.14 220.02 139.13 234.35 143.35 236.48L148.4 290.36C148.67 291.2 149.36 292.53 149.65 293.43C149.96 294.41 150.57 295.78 150.89 296.83C157.09 317.59 158.61 346.79 160.32 368.22L165.62 385.29C163.71 402.28 163.83 397.02 157.33 400.39C166.31 414.51 168.9 412.76 171.29 437.83L145.96 435.79L138.68 394.59L112.19 385.03C139.6 350.42 137.01 390.45 126.43 290.5L122.21 308.32L116.84 329.71C116.75 329.77 123.24 347.23 107.2 329.11C92.87 312.93 107.34 318.42 107.81 317.77L111.53 313.88ZM1151.4 495.73L1622.17 497.6L1622.17 511.86L1113.41 513.57C1091.17 513.19 1091.68 517.86 1086.64 502.84C1089.04 500.59 1089.44 499.66 1089.34 499.32C1090.06 499.33 1091.88 499.1 1096.02 498.02L1143.21 496.82L1151.4 495.73ZM1000.53 315.64C1003.13 325.68 1007.72 326.9 1010.61 342.52C1002.44 350.61 1001.79 351.6 990.45 358.9L1000.8 340.47C977.55 320.19 977.43 334.13 967.06 297.73L983.02 293.08C991.06 270.36 973.78 297.54 983.34 277.83C1002.79 278.25 991.61 277.74 998.21 284.25C1009.5 304.11 994.85 293.65 1000.53 315.64ZM908.92 183.5L910.88 198.81L882.34 198.6L879.21 188.77C872 202.54 888.62 193.76 862.67 202.22C861.59 202.57 846.76 203.85 844.92 204.02C851.31 199.53 857.22 193.44 867.74 189.24L905.18 183.4C910.1 174.26 907.41 181.69 909.76 175.04C909.89 174.66 910.22 173.3 910.32 172.94C912.31 165.66 899.14 168.06 912.7 166.27C922.45 164.99 918.27 167.71 922.13 169.89C914.97 182.2 918 177.89 908.92 183.5ZM1233.76 414.59L1245.48 344.58C1258.58 332.5 1257.72 332.5 1274.32 329.41C1309.06 322.94 1293.49 339.47 1324.68 273.4C1332.76 327.14 1314.29 328.51 1313.36 364.36C1299.43 367.81 1307.38 364.32 1298.64 369.1L1307.6 399.44C1319.01 384.32 1314.04 385.16 1313.36 364.36L1333.49 437.51L1301.14 437.68C1298.82 423.89 1295.65 410.48 1292.56 395.81C1292.24 394.28 1288.29 375.2 1288.18 374.9C1278.87 349.39 1290.7 364.28 1273.72 359.81C1256.19 367.99 1271.46 356.15 1263.37 374.4C1254.98 393.35 1258.11 395.27 1260.61 403.8L1264.63 437.62C1238.13 437.3 1246.26 440.27 1232.32 422.9L1233.76 414.59ZM773.88 615.78C769.58 629.3 777.19 623.15 762.04 625.73C773.42 609.89 762.36 621.86 773.88 615.78ZM815.45 184.29C802.55 200.14 786.05 201.88 776.1 241.6L789.54 246.5C764.51 268.47 760.34 293.45 759.97 338.52C748.01 316.72 756.76 286.8 759.59 261.59C719.33 312.97 753.36 204.03 815.45 184.29ZM905.05 557.92C906.88 554.12 907.98 550.4 909.46 547.69C913.55 540.18 913.35 541.61 915.58 539.12C922.28 559.9 910.14 567.58 896.07 574.84C899.49 568.17 901.69 564.9 905.05 557.92ZM98.5 394.79C99.35 395.73 101.01 395.61 101.38 397.23L104.79 434.43L77.65 438.38L89.82 413.04C82.03 406.53 82.78 404.13 81.33 391.54L88.22 371.88L89.4 348.45C104.13 365.91 90.21 356.47 111.98 368.37C104.57 375.23 121.82 381.02 91.9 369.69C95.16 380.72 96.7 386.6 98.5 394.79ZM856.02 219.81C867.61 213.44 869.42 215.4 884.56 214.4L863.37 227.64C854.51 231.68 850.41 233.55 841.62 236.72C846.62 227.57 843.22 226.85 856.02 219.81ZM1050.44 360.88C1051.5 360.02 1053.08 357.35 1053.63 358.31L1066.98 347.2C1075.58 365.42 1106.51 409.71 1099.82 431.13C1085.97 451.9 1083.98 442.39 1073.87 455.37C1056.3 477.9 1082.19 476.99 1048.7 483.94C1053.2 475.23 1057.96 470.24 1060.74 460.83C1065.37 445.17 1059.1 449.27 1067.58 436.23L1053.85 423.37C1049.09 413.46 1050.29 407.88 1049.2 397.55C1058 403.06 1053.28 399.95 1060.4 405.44C1060.68 405.66 1066.26 410.66 1068.92 412.4C1075.13 416.44 1083.76 419.34 1090.97 422.11C1086.83 388.02 1074.1 374.81 1048.15 364.04L1030.01 361.4L1059.93 335.42C1054.44 365.36 1063.62 342.47 1050.44 360.88ZM285.62 269.79L295.07 256.97L282.97 232.14L333.84 233.33C378.58 241.35 379.91 343.3 329.98 359.26C329.46 358.44 329.26 356.85 329.1 356.43L315.28 343.28C313.24 342.62 314.38 342.65 306.46 341.23L310.64 354.64L309.89 421.31C309.89 421.36 314.16 446.88 291.26 439.13C279.16 430.04 283.16 445.75 282.43 415.76C301.76 401.07 295.97 430.7 299.41 398.52L296.12 395.2L284.25 402.79C281.74 376.23 282.15 333.64 287.26 313.42C278.84 304.46 278.92 295.12 282.23 278.01L285.62 269.79ZM858.01 288.85C858.98 288.36 860.41 287.67 861.5 287.15L889.92 276.13L856.9 307.67L851.17 292.82L858.01 288.85ZM909.15 393.45C908.16 391.99 907.21 390.27 904.81 388.43C906.79 389.73 908.05 391.5 909.15 393.45ZM930.96 398.1C951.19 397.56 946.11 391.24 959.16 399.9C949.48 403.75 941.59 409.17 930.02 408.08C914.38 406.6 912.43 399.24 909.15 393.45C911.28 396.59 913.63 398.57 930.96 398.1ZM972.53 155.09C969.32 149.32 969.67 147.86 965.87 142.25C956.04 127.73 956.53 133.14 949 116.95C969.95 128.27 980.27 140.66 985.93 171.59L972.53 155.09ZM888.71 244.43C879.41 247.11 876.93 250.81 867.55 257.7C853.72 267.87 853.69 269.33 839.17 266.13C850.8 251.01 863.74 242.69 888.71 244.43ZM1022.88 538.7C1026.82 535.61 1020.31 532.13 1041.34 532.49C1056.6 532.76 1050.59 532.34 1059.92 538.7C1059.91 538.72 1058.99 548.7 1041.21 549.65C1018.04 550.88 1026.26 547.67 1022.88 538.7ZM921.74 141.31C921.18 139.25 919.68 139.12 918.68 137.99C948.62 143.13 962.41 159.13 967.4 189.71L921.74 141.31ZM860.98 557.9L855.95 539.61C853.85 529.81 855.39 531.87 850.53 520.21C842.76 501.59 838.69 499.6 838.51 475.99L848.25 492.13C866.74 528.06 871.97 514.96 863.25 562.18C862.45 560.78 861.28 557.15 860.98 557.9ZM1067.54 546.9L1067.45 531.87L1114.21 532.72C1137.43 534.91 1122.37 534.04 1129.37 538.7C1121.08 548.63 1119.58 552.73 1106.45 546.78C1104.52 545.91 1099.57 539.6 1099.49 539.49C1089.71 547.82 1083.12 549.7 1067.54 546.9ZM1403.27 145.72C1406.96 130.62 1409.7 124.05 1447.85 129.81C1467.16 132.73 1450.86 129.81 1459.09 134.03C1452.48 151.06 1470.88 145.64 1403.27 145.72ZM1582.97 186.28C1562.13 184.01 1569.92 185.87 1562.98 169.46L1622.17 170.95L1622.17 184.93C1612.77 185.56 1591.57 187.22 1582.97 186.28ZM673.93 532.8C687.86 537.13 679.35 531.17 684.71 543.82C668.86 553.37 634.02 555.11 615.18 533.7L673.93 532.8ZM831.81 456.28C824.26 438.26 828.39 355 833.65 333.64C840.65 347.7 843.88 379.18 844.31 390.45C844.98 408.14 835.54 432.55 831.81 456.28ZM537.41 134.03C548.73 127.58 553.25 129.37 566.98 129.45C587.53 129.56 633.47 126.19 650.61 134.03C644.53 149.86 662.9 144.85 630.04 145.72C618.17 139.86 623.65 141.94 620.36 133.92C612.37 135.77 616.87 133.93 609.81 137.82L601 145.25C588.84 145.63 573.81 146.56 561.87 146.17C533.6 145.24 546.31 150.53 537.41 134.03ZM741.35 282.3C747.81 294.35 740.16 309.17 732.42 324.89C732.71 305.4 731.79 296.79 741.35 282.3ZM1404.39 169.71L1556.81 169.64C1551.83 193.19 1550.15 186.62 1520.65 186.01L1375.87 185.07C1383.22 174.42 1385.83 169.71 1404.39 169.71ZM230.63 134.03C242.36 126.19 366.26 130.27 397.78 129.63C427.72 129.01 430.71 126.24 441.29 140.79C442.07 139.69 443 138.01 443.58 137.48C460.33 122.29 455.92 137 467.33 135.36L476.06 131.51C493.06 126.88 519.32 124.89 529.79 139.15C516.18 149.25 506.7 146.25 490.49 144.19L276.1 145.96C256.02 144.3 262.98 144.47 257.38 133.84C242.74 142.52 236.75 158.47 230.63 134.03ZM1133.37 185.84C1051.94 185.88 1067.34 193.81 1064.7 169.69L1326.96 169.67C1370.86 171.36 1365.92 169.95 1367.93 182.27L1133.37 185.84ZM1236.86 241.15C1237.1 239.82 1238.03 236.11 1238.23 235.26C1238.33 234.81 1238.95 233.9 1239.03 232.68C1239.11 231.49 1239.49 230.97 1239.84 230.17C1282.31 230.17 1305.53 222.21 1323.87 256.97C1318.99 275.13 1310.08 282.87 1302.89 299.19C1290.97 271.37 1309.04 261.2 1264.66 262.85L1264.59 324.12L1239.03 325.75C1231.62 309.59 1234.45 284.95 1234.45 262.09C1234.45 251.13 1235.11 251.07 1236.86 241.15ZM1423.82 549.18C1409.27 549.02 1394.74 549.04 1380.19 549.04C1328.1 549.04 1157.14 554.2 1131.74 543.44L1143.09 538.63C1190.3 524.74 1184.71 534.15 1190.33 544.46C1199.96 526.14 1198.27 532.7 1249.52 532.81L1448.15 533.03C1462.45 537.72 1453.66 530.69 1459.24 543.82L1423.82 549.18ZM1065.76 134.03C1082.99 124.07 1206.59 131.11 1225.35 129.98L1356.06 129.55C1382.79 129.28 1382.67 126.74 1394.41 134.59C1382.93 148.35 1385.05 145.88 1361.11 146.02L1099.34 145.89C1059.7 146.85 1068.75 143.58 1065.76 134.03ZM1380.19 437.69L1359.34 437.69C1359.34 367.67 1359.34 299.81 1359.34 230.17C1395.98 230.17 1387.18 230.59 1388.8 251.38L1386.83 342.62C1383.15 361.67 1380.99 343.19 1382.31 364.13C1382.88 373.23 1391.33 387.04 1388.92 416.05C1386.59 444.05 1392.39 429.33 1380.19 437.69ZM210.85 246.69L202.71 240.49C210.83 229.59 203.48 233.88 219.97 230.17L219.95 405.12L264.03 408.86L264.73 437.83C238.65 437.61 213.61 438.78 194.83 426.01L193.65 323.56L212.69 313.31C211.19 312.68 204.74 310.77 203.74 310.17C183.41 297.99 194.59 255.4 202.71 240.49C207.69 252.19 199.64 247.31 209.53 249.98C209.8 249.14 210.6 247.22 210.85 246.69ZM210.89 246.72C210.96 246.49 210.94 246.52 210.85 246.69L210.89 246.72ZM238.7 416.25C221.78 416.74 236.01 415.68 230.06 420.88L249.52 422.69C239.11 414.11 261.78 415.59 238.7 416.25ZM240.08 538.7C253.6 527.04 560.49 529.28 599.86 534.44C596.47 545.94 597.28 538.47 600.62 548.62L576.8 539.19C572.46 546.21 577.01 548.71 553.32 549.29L276.54 549.23C255.79 549.54 245.28 555.19 240.08 538.7ZM1277.18 356.52C1300.67 347.21 1291.02 350.31 1301.03 334.37L1279.99 335.43C1284.91 347.87 1283.77 338.3 1277.18 356.52ZM308.81 328.44C328.55 328.37 336.94 328.36 339.87 308.3C342.37 291.19 338.65 274.38 332.75 264.28L309.1 261.82L308.81 328.44ZM299.55 243.13C296.07 233.31 292.91 239.12 293.27 241.6C293.99 246.47 306.62 263.12 299.55 243.13ZM68.63 185.83L68.63 170.21L417.09 169.67C448.15 174.91 416.42 176.73 433.75 176.85C445.81 176.94 434.44 174.75 451.25 171.13L611.11 169.23C632.62 173.94 622.8 159.93 625.43 185.83C613.79 185.83 596.6 186.98 585.71 186.08C560.01 183.95 572.65 190.57 567.12 175.17L555.34 183.87C532.46 193.28 530.85 181.99 508.22 184.05C440.06 190.24 144.42 185.9 68.63 185.83ZM1563.31 317.94L1602.88 317.96L1603.19 349.36L1563.31 351.84L1562.94 406.4L1617.17 406.39L1617.94 437.69L1533.46 437.69L1533.45 230.14L1617.94 229.99L1617.13 261.61C1582.19 259.38 1616.78 251.75 1589.83 258.27C1588.9 258.49 1587.5 258.96 1586.49 259.24L1566.93 265.63C1566.23 264.41 1564.23 266.44 1563 267.21L1563.31 317.94C1554.37 310.95 1556.05 308.88 1541.19 307.73C1541.52 327.76 1550.89 349.37 1551.97 346.11C1552.22 345.35 1553.6 347.69 1554.42 348.49C1561.66 342.06 1552.73 353.39 1563.82 338.16C1564.54 337.18 1567.15 334.28 1567.55 331.95C1567.85 330.2 1568.77 329.73 1569.47 328.68C1563.36 323.89 1565 320.75 1563.31 317.94ZM68.63 512.39L68.63 496.53C148.14 495.44 375.22 492.13 451.1 496.77L596.16 496.35C671.77 496.15 656.78 488.65 659.3 513.07C608.88 513.07 559.27 513.41 512.66 509.48L368.69 513.07C271.15 513.07 165.14 517.23 68.63 512.39ZM519.31 437.69L495.34 410.64L517.42 250.93C522.17 229.91 513.39 229.98 553.9 230.5C565.3 258.02 580.12 394.4 585.36 436.41L562.29 437.95C548.63 413.98 563.84 383.28 533.24 390.37C520.35 396.62 527.53 382.78 521.59 409.48C520.28 415.37 519.64 431.65 519.31 437.69ZM538.08 359.37C557.17 351.23 545.45 362.08 541.31 292.18C534.48 303.23 529.98 339.22 530.09 344.88C530.56 369.26 525.27 352.81 538.08 359.37ZM1118.47 230.16C1183.4 230.27 1213.34 223.25 1211.8 298.07C1210.8 346.44 1192.05 358.8 1148.36 360.18L1148.26 437.3L1118.6 437.83L1118.47 256.97L1118.47 230.16ZM1183.53 292.7C1182.95 264.5 1173.45 262.06 1148.47 262.71C1147 306.15 1140.58 308.88 1152.73 328.25C1179.43 328.93 1184.18 324.44 1183.53 292.7ZM1152.9 239.56C1151.01 239.66 1149.52 239.58 1148.36 239.4C1148.34 240.04 1148.26 240.77 1148.11 241.6C1146.79 249.29 1154.99 243.95 1154.64 240.63L1152.9 239.56ZM1167.25 355.19C1170.1 350.43 1181.21 360.74 1167.25 330.99C1167.09 331.22 1150.28 334.31 1167.25 355.19ZM394.78 262.09L411.78 272.34L411.99 317.69L443.78 317.01L443.76 230.17C476.21 230.17 471.59 227.68 467.86 335.66C467.28 352.49 467.47 336.03 468.47 354.99L469.69 416.27C469.6 417.43 475.11 446.53 450.97 437.69C437.38 432.72 444.88 383.85 442.96 349.65L412.57 350.03C411.28 370.37 411.86 390.12 411.62 410.39C411.26 440.16 411.86 437.61 385.8 437.69L385.84 230.17L409.63 230.35L412.25 256.94C404.19 262.29 401.79 255.64 394.78 262.09ZM1478.53 364.3C1479.55 340.51 1478.36 345.71 1493.49 338.68L1482.2 328.69C1475.3 317.1 1480.76 303.41 1479.2 287.34C1476.82 262.84 1467.17 261.11 1444.5 263.68L1444.45 405.73L1481.69 408.51C1480.16 396.76 1477.95 377.97 1478.53 364.3Z" />
</svg>